<?xml version="1.0" standalone="no"?>
<!DOCTYPE svg PUBLIC "-//W3C//DTD SVG 20010904//EN"
 "http://www.w3.org/TR/2001/REC-SVG-20010904/DTD/svg10.dtd">
<svg version="1.0" xmlns="http://www.w3.org/2000/svg"
 width="2047.000000pt" height="2047.000000pt" viewBox="0 0 2047.000000 2047.000000"
 preserveAspectRatio="xMidYMid meet">
<metadata>
Created by potrace 1.14, written by Peter Selinger 2001-2017
</metadata>
<g transform="translate(0.000000,2047.000000) scale(0.100000,-0.100000)"
fill="#000000" stroke="none">
<path d="M2240 20259 c-556 -57 -1051 -288 -1449 -674 -393 -382 -630 -850
-713 -1410 -20 -135 -19 -15677 0 -15810 42 -278 117 -522 233 -755 130 -261
268 -449 481 -655 402 -391 898 -620 1463 -675 137 -13 15883 -13 16020 0 457
45 873 205 1233 474 129 97 327 288 427 411 274 340 449 746 517 1200 11 74
13 1444 13 7910 0 7508 -1 7825 -18 7933 -44 270 -111 483 -227 717 -130 264
-269 453 -481 660 -404 392 -895 618 -1468 675 -129 13 -15905 12 -16031 -1z
m16050 -1052 c485 -74 899 -249 1248 -528 517 -411 814 -932 872 -1528 14
-143 14 -4596 0 -4786 -60 -812 -345 -1461 -882 -2010 l-127 -130 73 -75 c164
-170 333 -383 469 -590 254 -389 407 -785 479 -1240 l23 -145 0 -2460 c0
-2692 3 -2542 -60 -2791 -96 -374 -289 -700 -593 -1000 -451 -446 -995 -696
-1642 -754 -77 -7 -1639 -10 -4699 -10 -5010 0 -4670 -4 -4879 56 -118 34
-293 120 -388 192 -90 68 -215 192 -274 271 -51 70 -122 208 -148 291 -39 123
-47 181 -46 345 1 138 5 173 27 257 49 185 132 332 271 476 188 195 393 309
674 374 l97 23 4543 2 4542 3 0 2228 c0 1418 -4 2266 -10 2333 -25 265 -121
473 -311 674 -148 156 -316 265 -509 329 -226 76 39 69 -3010 76 -2485 5
-2741 7 -2801 22 -138 34 -212 60 -317 113 -253 126 -468 345 -563 573 -114
276 -111 611 11 878 45 99 116 200 209 297 183 190 382 303 651 370 l85 21
2750 6 c2556 6 2756 7 2835 24 250 51 474 166 655 338 207 196 317 413 345
679 6 67 10 854 10 2315 l0 2214 -4602 3 -4603 2 -97 23 c-281 65 -486 179
-674 374 -139 144 -222 291 -271 476 -22 84 -26 119 -27 257 0 98 4 183 12
220 42 193 124 356 247 495 224 250 509 397 845 433 19 2 2152 3 4740 3 4433
-2 4712 -3 4820 -19z"/>
</g>
</svg>
