<?xml version="1.0" standalone="no"?>
<!DOCTYPE svg PUBLIC "-//W3C//DTD SVG 20010904//EN"
 "http://www.w3.org/TR/2001/REC-SVG-20010904/DTD/svg10.dtd">
<svg version="1.0" xmlns="http://www.w3.org/2000/svg"
 width="2047.000000pt" height="2047.000000pt" viewBox="0 0 2047.000000 2047.000000"
 preserveAspectRatio="xMidYMid meet">
<metadata>
Created by potrace 1.14, written by Peter Selinger 2001-2017
</metadata>
<g transform="translate(0.000000,2047.000000) scale(0.100000,-0.100000)"
fill="#000000" stroke="none">
<path d="M2270 20323 c-811 -57 -1522 -494 -1933 -1188 -159 -267 -262 -562
-314 -895 -17 -110 -18 -465 -18 -8000 0 -7535 1 -7890 18 -8000 88 -562 320
-1018 713 -1400 197 -192 386 -326 619 -440 247 -120 491 -193 775 -232 77
-11 1616 -13 8110 -13 7656 0 8020 1 8135 18 420 63 792 216 1125 463 135 100
384 349 484 484 247 333 399 703 463 1125 17 115 18 449 18 7985 0 6488 -2
7883 -13 7965 -77 574 -318 1058 -723 1450 -375 363 -798 570 -1354 663 -93
15 -681 17 -8080 18 -4389 0 -8000 -1 -8025 -3z m14332 -4237 c371 -73 682
-393 738 -761 7 -49 10 -981 8 -3070 l-3 -3000 -28 -88 c-50 -160 -108 -258
-226 -381 -125 -129 -240 -201 -408 -253 l-88 -28 -1665 0 -1665 0 -88 28
c-172 53 -291 129 -419 266 -111 118 -183 252 -225 417 -17 65 -18 238 -18
3074 0 2891 1 3008 19 3085 70 302 313 574 606 677 134 47 90 46 1787 47 1353
1 1613 -1 1675 -13z m-9447 -24 c90 -25 223 -86 291 -133 65 -45 179 -153 231
-221 63 -82 127 -208 160 -313 l28 -90 0 -1105 0 -1105 -22 -101 c-57 -255
-145 -438 -298 -618 l-57 -68 18 -24 c218 -272 313 -466 359 -728 13 -76 15
-239 15 -1145 0 -695 -4 -1078 -11 -1117 -68 -385 -393 -711 -779 -780 -61
-11 -413 -13 -1860 -14 -1582 0 -1793 2 -1845 16 -173 44 -314 203 -345 386
-40 233 105 469 331 539 59 18 121 19 1795 19 l1735 0 -3 983 c-3 974 -3 982
-24 1044 -60 175 -210 305 -384 332 -42 7 -427 11 -1076 11 -977 0 -1014 1
-1075 20 -126 39 -225 124 -284 243 -136 279 13 604 312 682 49 13 206 15
1079 15 642 0 1041 4 1075 10 128 24 275 133 333 249 56 109 56 105 56 1134
l0 947 -1760 0 c-1756 0 -1761 0 -1822 21 -284 95 -414 428 -270 692 34 63
127 156 190 190 109 59 -8 56 1992 54 l1835 -2 80 -23z m1618 -7886 c40 -16
97 -80 97 -108 0 -23 -23 -148 -130 -698 -187 -958 -242 -1356 -243 -1735 -1
-381 60 -577 217 -696 71 -54 142 -74 256 -73 110 0 178 18 290 74 234 118
404 277 770 720 98 118 191 228 207 243 61 57 119 28 109 -55 -2 -21 -3 -38
-1 -38 2 0 20 30 40 68 104 188 368 546 504 683 221 221 468 351 636 336 121
-11 186 -56 337 -233 90 -104 101 -112 178 -148 111 -50 291 -110 447 -147
112 -27 151 -32 318 -36 287 -8 463 23 686 122 57 24 105 42 108 39 3 -3 6
-31 5 -62 0 -121 -119 -276 -264 -345 -157 -74 -296 -101 -525 -101 -173 0
-272 14 -419 61 -76 24 -230 94 -251 114 -21 21 -21 6 1 -48 104 -258 19 -640
-221 -998 -275 -411 -590 -610 -1063 -670 -186 -24 -300 -18 -375 18 -187 92
-357 363 -357 571 0 120 26 285 66 421 4 11 -18 -14 -47 -55 -171 -243 -433
-525 -609 -657 -256 -191 -470 -271 -690 -260 -402 20 -662 315 -721 818 -12
102 -7 485 7 604 l6 50 -80 -120 c-178 -266 -448 -565 -682 -757 -198 -161
-638 -463 -1055 -724 -308 -191 -473 -267 -653 -299 -126 -23 -185 -20 -258
15 -79 38 -166 116 -195 176 -19 40 -21 55 -15 122 4 43 8 88 9 101 2 21 -4
26 -47 37 -67 17 -85 38 -97 115 -14 84 -6 172 47 544 134 931 349 1984 491
2400 93 273 165 381 271 404 68 14 106 5 141 -34 35 -40 51 -107 51 -210 0
-167 -42 -351 -173 -751 -156 -474 -237 -753 -331 -1132 -58 -231 -127 -544
-122 -549 1 -2 13 16 26 40 112 204 358 524 550 718 343 344 619 486 829 424
80 -24 181 -124 231 -229 94 -198 95 -389 4 -677 -41 -129 -117 -310 -175
-418 -22 -41 -34 -70 -27 -64 7 5 51 39 98 74 518 389 973 944 1159 1412 43
107 75 168 100 191 12 11 21 27 21 36 0 10 24 152 54 316 30 165 71 412 90
549 20 138 46 278 58 312 55 158 195 248 311 199z m6201 -1206 c119 -37 203
-112 233 -208 19 -58 17 -68 -31 -244 -60 -217 -66 -298 -76 -968 -8 -605 -15
-747 -46 -945 -109 -698 -476 -1192 -975 -1312 -54 -13 -115 -18 -229 -18
-144 0 -161 2 -235 28 -249 87 -552 276 -770 479 -133 124 -155 170 -121 253
28 65 120 69 235 10 25 -13 102 -60 171 -104 148 -96 415 -234 555 -286 281
-106 564 -21 725 215 58 85 137 238 166 320 81 232 136 611 151 1035 l6 190
-116 -112 c-237 -227 -504 -399 -784 -504 -179 -67 -377 -96 -477 -68 -46 13
-127 86 -162 145 -62 105 -99 288 -82 406 21 152 135 420 283 663 253 416 603
759 955 935 227 113 445 145 624 90z"/>
<path d="M13480 12295 l0 -2835 1460 0 1460 0 0 2835 0 2835 -1460 0 -1460 0
0 -2835z"/>
<path d="M11244 6432 c-59 -44 -118 -111 -253 -291 -326 -432 -421 -632 -452
-944 -12 -113 -11 -129 5 -171 27 -71 77 -137 132 -175 l49 -33 140 5 c166 5
254 30 375 105 182 113 324 251 459 445 85 123 117 195 136 301 33 191 13 391
-51 523 -40 84 -84 123 -135 123 -40 0 -127 40 -218 98 -81 53 -129 56 -187
14z"/>
<path d="M6569 6086 c-243 -68 -610 -427 -891 -873 -93 -149 -226 -414 -263
-527 -25 -74 -26 -82 -12 -110 32 -66 79 -118 125 -138 120 -53 396 31 649
199 97 63 165 139 272 303 193 294 321 590 351 810 17 122 -16 250 -83 323
-29 31 -69 34 -148 13z"/>
<path d="M14535 6626 c-97 -31 -142 -56 -227 -125 -90 -73 -263 -247 -358
-361 -232 -277 -460 -735 -495 -992 l-6 -47 36 -7 c70 -13 206 1 290 31 122
42 434 196 543 268 89 59 283 204 360 269 39 33 47 53 66 165 20 116 33 267
48 557 14 283 21 266 -106 266 -56 -1 -102 -8 -151 -24z"/>
</g>
</svg>
